<svg width="1694" height="103" viewBox="0 0 1694 103" fill="none" xmlns="http://www.w3.org/2000/svg">
<path d="M0 1.80702H38.7845C49.3117 1.80702 57.3456 4.21638 62.8863 9.03509C68.5193 13.8538 71.3357 20.8039 71.3357 29.8853C71.3357 36.372 69.6274 41.8394 66.2107 46.2874C62.8863 50.6428 58.4538 53.5155 52.9131 54.9055V55.1835C57.6227 56.1102 61.1779 58.3806 63.5788 61.9946C66.0721 65.6086 67.7343 69.5933 68.5654 73.9487C69.4889 78.3041 70.1353 83.4008 70.5047 89.2389C70.874 93.2236 71.1972 96.0036 71.4743 97.5789C71.7513 99.1543 72.3054 100.081 73.1365 100.359V101.193H62.3322C61.6858 100.637 61.2703 99.664 61.0856 98.2739C60.9009 96.7913 60.7162 94.3819 60.5315 91.0459C60.2545 85.1152 59.7004 80.0648 58.8693 75.8947C58.0382 71.632 56.1913 67.9253 53.3287 64.7746C50.466 61.5313 46.1258 59.9096 40.3082 59.9096H10.1117V101.193H0V1.80702ZM36.2912 51.0135C44.2328 51.0135 50.3737 49.2528 54.7138 45.7314C59.054 42.1174 61.2241 36.8817 61.2241 30.0243C61.2241 23.5376 59.2849 18.7188 55.4064 15.5681C51.528 12.3248 45.3871 10.7031 36.9838 10.7031H10.1117V51.0135H36.2912Z" fill="black"/>
<path d="M94.1422 1.80702H161.322V10.7031H104.254V44.8974H155.228V53.7935H104.254V92.2969H162.846V101.193H94.1422V1.80702Z" fill="black"/>
<path d="M218.743 103C206.553 103 196.58 99.942 188.823 93.8259C181.159 87.7099 177.003 79.1844 176.357 68.2497H186.884C187.623 76.3117 190.532 82.6595 195.611 87.2928C200.782 91.8336 208.354 94.1039 218.327 94.1039C227.008 94.1039 233.241 92.2969 237.027 88.6829C240.905 85.0688 242.845 80.2038 242.845 74.0877C242.845 69.4543 241.736 65.8866 239.52 63.3846C237.396 60.7899 234.349 58.7976 230.378 57.4076C226.5 56.0175 220.497 54.3959 212.371 52.5425C205.722 50.9672 200.182 49.2528 195.749 47.3995C191.317 45.5461 187.669 42.8588 184.806 39.3374C181.944 35.816 180.512 31.229 180.512 25.5762C180.512 17.6995 183.467 11.4908 189.377 6.95007C195.287 2.31669 203.321 0 213.479 0C224.283 0 232.871 2.64103 239.243 7.92308C245.707 13.2051 249.309 20.7112 250.047 30.4413H239.52C238.689 23.3059 236.15 17.9312 231.902 14.3171C227.746 10.7031 221.605 8.89609 213.479 8.89609C206.276 8.89609 200.736 10.3324 196.857 13.2051C192.979 15.9852 191.04 19.9699 191.04 25.1592C191.04 29.3293 192.148 32.6653 194.364 35.1673C196.58 37.5767 199.397 39.3837 202.813 40.5884C206.322 41.7931 211.171 43.0904 217.358 44.4804C225.392 46.2411 231.902 48.1408 236.888 50.1795C241.875 52.1255 245.846 54.9982 248.801 58.7976C251.848 62.5969 253.372 67.6937 253.372 74.0877C253.372 79.6478 252.079 84.6055 249.493 88.9609C247 93.3162 243.122 96.7449 237.858 99.247C232.687 101.749 226.315 103 218.743 103Z" fill="black"/>
<path d="M274.04 1.80702H284.152V101.193H274.04V1.80702Z" fill="black"/>
<path d="M310.692 1.80702H346.568C360.235 1.80702 370.808 6.25506 378.288 15.1511C385.861 23.9546 389.647 36.1404 389.647 51.7085C389.647 61.9019 387.938 70.7054 384.522 78.1188C381.105 85.5322 376.118 91.2312 369.562 95.2159C363.098 99.2006 355.295 101.193 346.153 101.193H310.692V1.80702ZM346.153 92.2969C357.788 92.2969 366.191 88.5902 371.362 81.1768C376.534 73.6707 379.119 63.848 379.119 51.7085C379.119 39.3837 376.58 29.4683 371.501 21.9622C366.422 14.4561 358.065 10.7031 346.43 10.7031H320.804V92.2969H346.153Z" fill="black"/>
<path d="M411.328 1.80702H478.508V10.7031H421.439V44.8974H472.413V53.7935H421.439V92.2969H480.032V101.193H411.328V1.80702Z" fill="black"/>
<path d="M500.33 1.80702H512.658L566.263 86.8758H566.54V1.80702H576.652V101.193H564.324L510.718 16.1242H510.441V101.193H500.33V1.80702Z" fill="black"/>
<path d="M643.711 103C634.846 103 626.951 100.822 620.025 96.4669C613.191 92.1116 607.835 86.0418 603.957 78.2578C600.171 70.381 598.278 61.4849 598.278 51.5695C598.278 41.6541 600.171 32.8043 603.957 25.0202C607.835 17.1435 613.191 11.0274 620.025 6.67207C626.951 2.22402 634.892 0 643.85 0C651.329 0 657.978 1.48268 663.796 4.44804C669.706 7.41341 674.415 11.4444 677.924 16.5412C681.526 21.5452 683.742 27.1979 684.573 33.4993H674.046C672.846 26.8273 669.798 21.0819 664.904 16.2632C660.01 11.3518 652.945 8.89609 643.711 8.89609C636.046 8.89609 629.582 10.8421 624.319 14.7341C619.147 18.6262 615.269 23.8156 612.683 30.3023C610.098 36.789 608.805 43.8781 608.805 51.5695C608.805 59.2609 610.098 66.35 612.683 72.8367C615.269 79.2308 619.194 84.3738 624.457 88.2659C629.721 92.1579 636.139 94.1039 643.711 94.1039C650.36 94.1039 655.9 92.7602 660.333 90.0729C664.765 87.3855 668.136 83.9105 670.445 79.6478C672.753 75.3851 674.092 70.798 674.462 65.8866H684.989C684.158 73.1147 681.941 79.5551 678.34 85.2078C674.831 90.7679 670.075 95.1233 664.073 98.2739C658.163 101.425 651.376 103 643.711 103Z" fill="black"/>
<path d="M705.387 1.80702H772.568V10.7031H715.499V44.8974H766.473V53.7935H715.499V92.2969H774.091V101.193H705.387V1.80702Z" fill="black"/>
<path d="M851.382 10.7031H817.723V1.80702H895.153V10.7031H861.355V101.193H851.382V10.7031Z" fill="black"/>
<path d="M904.973 1.80702H915.638L935.862 86.7368H936.139L959.409 1.80702H970.629L993.9 86.7368H994.316L1014.54 1.80702H1025.07L1000.27 101.193H989.052L965.227 13.7611H964.812L940.987 101.193H929.906L904.973 1.80702Z" fill="black"/>
<path d="M1043.54 1.80702H1110.72V10.7031H1053.65V44.8974H1104.63V53.7935H1053.65V92.2969H1112.24V101.193H1043.54V1.80702Z" fill="black"/>
<path d="M1132.54 1.80702H1144.87L1198.48 86.8758H1198.75V1.80702H1208.86V101.193H1196.54L1142.93 16.1242H1142.65V101.193H1132.54V1.80702Z" fill="black"/>
<path d="M1260.69 10.7031H1227.03V1.80702H1304.46V10.7031H1270.66V101.193H1260.69V10.7031Z" fill="black"/>
<path d="M1349.6 60.4656L1313.45 1.80702H1324.39L1354.58 52.5425H1354.86L1385.2 1.80702H1396L1359.71 60.4656V101.193H1349.6V60.4656Z" fill="black"/>
<path d="M1413.62 1.80702H1479.83V10.7031H1423.73V45.8704H1469.99V54.7665H1423.73V101.193H1413.62V1.80702Z" fill="black"/>
<path d="M1497.75 1.80702H1507.86V101.193H1497.75V1.80702Z" fill="black"/>
<path d="M1525.26 1.80702H1536.2L1566.67 90.9069H1566.81L1597.01 1.80702H1607.54L1571.94 101.193H1561.41L1525.26 1.80702Z" fill="black"/>
<path d="M1625.3 1.80702H1692.48V10.7031H1635.41V44.8974H1686.38V53.7935H1635.41V92.2969H1694V101.193H1625.3V1.80702Z" fill="black"/>
</svg>
